<?xml version="1.0" encoding="UTF-8" standalone="no"?>
<svg
   viewBox="0 0 20 20"
   version="1.1"
   id="svg4"
   sodipodi:docname="link.svg"
   inkscape:version="1.1.2 (0a00cf5339, 2022-02-04)"
   xmlns:inkscape="http://www.inkscape.org/namespaces/inkscape"
   xmlns:sodipodi="http://sodipodi.sourceforge.net/DTD/sodipodi-0.dtd"
   xmlns="http://www.w3.org/2000/svg"
   xmlns:svg="http://www.w3.org/2000/svg">
  <defs
     id="defs8" />
  <sodipodi:namedview
     id="namedview6"
     pagecolor="#ffffff"
     bordercolor="#666666"
     borderopacity="1.0"
     inkscape:pageshadow="2"
     inkscape:pageopacity="0.0"
     inkscape:pagecheckerboard="0"
     showgrid="false"
     inkscape:zoom="21.825"
     inkscape:cx="1.534937"
     inkscape:cy="2.978236"
     inkscape:window-width="2560"
     inkscape:window-height="1403"
     inkscape:window-x="1920"
     inkscape:window-y="0"
     inkscape:window-maximized="1"
     inkscape:current-layer="svg4" />
  <path
     d="m 11.077,15 0.991,-1.416 c 0.573333,-0.819333 1.802333,0.04067 1.229,0.86 l -1.148,1.64 c -0.05772,0.08258 -0.131531,0.152649 -0.217,0.206 -4.1536346,4.344299 -11.16564466,-0.566499 -8.503,-5.955 0.020958,-0.09854 0.06179,-0.191774 0.12,-0.274 L 4.696,8.422 c 0.5647031,-0.8653708 1.8481738,0.033477 1.228,0.86 L 4.933,10.7 4.939,10.703 c -2.4572585,4.010216 3.203798,7.974433 6.132,4.294 l 0.006,0.004 z m 5.494,-5.335 c -0.02114,0.098481 -0.06196,0.1916778 -0.12,0.274 l -1.147,1.639 c -0.564703,0.865371 -1.848174,-0.03348 -1.228,-0.86 l 0.86,-1.23 C 17.75568,5.4004941 11.667661,1.1386823 8.792,5.187 L 7.932,6.416 C 7.3586669,7.235333 6.1296669,6.375333 6.703,5.556 l 1.148,-1.64 c 0.057721,-0.08258 0.131531,-0.1526488 0.217,-0.206 4.153635,-4.34429916 11.165645,0.5664993 8.503,5.955 z M 12.008,7.133 c 0.339527,0.2376642 0.42193,0.7056591 0.184,1.045 l -3.155,4.505 c -0.5733331,0.819333 -1.8023331,-0.04067 -1.229,-0.86 l 3.155,-4.506 c 0.237664,-0.3395271 0.705659,-0.42193 1.045,-0.184 z"
     id="path2"
     sodipodi:nodetypes="ccccccccccccccccccccscccccccccc" />
  <rect
     style="fill:#000000;fill-opacity:1;stroke:none;stroke-width:0;stroke-miterlimit:4;stroke-dasharray:none"
     id="rect2719"
     width="4.8307962"
     height="0.77519065"
     x="20.186174"
     y="-0.85293108"
     transform="rotate(45)"
     ry="0.41880324"
     rx="0.41880324" />
  <rect
     style="fill:#000000;fill-opacity:1;stroke:none;stroke-width:0;stroke-miterlimit:4;stroke-dasharray:none"
     id="rect2719-3"
     width="4.8307962"
     height="0.77519065"
     x="-1.9500613"
     y="22.213976"
     transform="rotate(-45)"
     rx="0.41880324"
     ry="0.41880324" />
</svg>
