<?xml version="1.0" encoding="UTF-8" standalone="no"?>
<!-- Generator: Adobe Illustrator 16.0.0, SVG Export Plug-In . SVG Version: 6.00 Build 0)  -->

<svg
   version="1.1"
   id="Capa_1"
   x="0px"
   y="0px"
   width="467.03436"
   height="467.03024"
   viewBox="0 0 467.03437 467.03025"
   xml:space="preserve"
   sodipodi:docname="link-icon.svg"
   inkscape:version="1.1.2 (1:1.1+202202050950+0a00cf5339)"
   xmlns:inkscape="http://www.inkscape.org/namespaces/inkscape"
   xmlns:sodipodi="http://sodipodi.sourceforge.net/DTD/sodipodi-0.dtd"
   xmlns="http://www.w3.org/2000/svg"
   xmlns:svg="http://www.w3.org/2000/svg"><defs
   id="defs39">
	
</defs><sodipodi:namedview
   id="namedview37"
   pagecolor="#ffffff"
   bordercolor="#666666"
   borderopacity="1.0"
   inkscape:pageshadow="2"
   inkscape:pageopacity="0.0"
   inkscape:pagecheckerboard="0"
   showgrid="false"
   fit-margin-left="5"
   fit-margin-right="5"
   fit-margin-bottom="5"
   fit-margin-top="5"
   lock-margins="false"
   inkscape:zoom="1.5907052"
   inkscape:cx="192.05318"
   inkscape:cy="232.60124"
   inkscape:window-width="1920"
   inkscape:window-height="1056"
   inkscape:window-x="1920"
   inkscape:window-y="0"
   inkscape:window-maximized="1"
   inkscape:current-layer="Capa_1" />
<path
   d="M 426.51615,254.956 340.72,169.189 c -47.35264,-47.38 -124.17067,-47.38 -171.5313,0 -7.4601,7.439 -13.29618,15.821 -18.42125,24.465 l 39.86454,39.861 c 1.89502,1.911 4.23505,3.006 6.47108,4.296 2.75604,-9.416 7.56711,-18.33 14.9722,-25.736 23.64832,-23.667 62.12884,-23.634 85.76315,0 l 85.76915,85.765 c 23.66632,23.664 23.66632,62.135 0,85.781 -23.63531,23.646 -62.10583,23.646 -85.76915,0 l -30.4994,-30.532 c -24.75034,9.637 -51.41569,12.228 -77.37404,8.424 l 64.99187,64.989 c 47.38063,47.371 124.17866,47.371 171.5593,0 47.35763,-47.369 47.35763,-124.178 0,-171.546 z M 199.70911,113.926 169.1877,83.394 c -23.64632,-23.634 -62.12883,-23.634 -85.779149,0 -23.648317,23.667 -23.648317,62.138 0,85.795 l 85.779149,85.767 c 23.66532,23.662 62.12183,23.662 85.76815,0 7.3881,-7.39 12.20416,-16.302 14.9862,-25.706 2.24903,1.307 4.56006,2.369 6.45409,4.266 l 39.86153,39.845 c -5.09207,8.678 -10.95815,17.03 -18.42125,24.477 -47.34863,47.371 -124.17366,47.371 -171.54529,0 L 40.524976,212.07 c -47.3666348,-47.385 -47.3666348,-124.172 0,-171.553 47.371635,-47.356 124.178664,-47.356 171.549294,0 l 65.00888,65.003 c -25.97235,-3.826 -52.64471,-1.213 -77.37404,8.406 z"
   id="path2"
   style="stroke-width:1.00001" />
<g
   id="g6"
   transform="translate(4.9985007,5.00025)">
</g>
<g
   id="g8"
   transform="translate(4.9985007,5.00025)">
</g>
<g
   id="g10"
   transform="translate(4.9985007,5.00025)">
</g>
<g
   id="g12"
   transform="translate(4.9985007,5.00025)">
</g>
<g
   id="g14"
   transform="translate(4.9985007,5.00025)">
</g>
<g
   id="g16"
   transform="translate(4.9985007,5.00025)">
</g>
<g
   id="g18"
   transform="translate(4.9985007,5.00025)">
</g>
<g
   id="g20"
   transform="translate(4.9985007,5.00025)">
</g>
<g
   id="g22"
   transform="translate(4.9985007,5.00025)">
</g>
<g
   id="g24"
   transform="translate(4.9985007,5.00025)">
</g>
<g
   id="g26"
   transform="translate(4.9985007,5.00025)">
</g>
<g
   id="g28"
   transform="translate(4.9985007,5.00025)">
</g>
<g
   id="g30"
   transform="translate(4.9985007,5.00025)">
</g>
<g
   id="g32"
   transform="translate(4.9985007,5.00025)">
</g>
<g
   id="g34"
   transform="translate(4.9985007,5.00025)">
</g>
</svg>
